{
	"asset":{
		"generator":"Khronos glTF Blender I/O v3.6.27",
		"version":"2.0"
	},
	"extensionsUsed":[
		"KHR_materials_specular",
		"KHR_materials_ior"
	],
	"scene":0,
	"scenes":[
		{
			"name":"Scene",
			"nodes":[
				0
			]
		}
	],
	"nodes":[
		{
			"mesh":0,
			"name":"Dopamine.mol",
			"rotation":[
				0.7071068286895752,
				0,
				0,
				0.7071068286895752
			]
		}
	],
	"materials":[
		{
			"doubleSided":true,
			"extensions":{
				"KHR_materials_specular":{
					"specularColorFactor":[
						0.020080160244135427,
						0.020080160244135427,
						0.020080160244135427
					]
				},
				"KHR_materials_ior":{
					"ior":0.0010000000474974513
				}
			},
			"name":"kff0d0d.001",
			"pbrMetallicRoughness":{
				"baseColorFactor":[
					1,
					0.054999999701976776,
					0.054999999701976776,
					1
				],
				"metallicFactor":0,
				"roughnessFactor":0.5962674021720886
			}
		},
		{
			"doubleSided":true,
			"extensions":{
				"KHR_materials_specular":{
					"specularColorFactor":[
						0.020080160244135427,
						0.020080160244135427,
						0.020080160244135427
					]
				},
				"KHR_materials_ior":{
					"ior":0.0010000000474974513
				}
			},
			"name":"k3050f8.001",
			"pbrMetallicRoughness":{
				"baseColorFactor":[
					0.19099999964237213,
					0.3160000145435333,
					0.9729999899864197,
					1
				],
				"metallicFactor":0,
				"roughnessFactor":0.5962674021720886
			}
		},
		{
			"doubleSided":true,
			"extensions":{
				"KHR_materials_specular":{
					"specularColorFactor":[
						0.020080160244135427,
						0.020080160244135427,
						0.020080160244135427
					]
				},
				"KHR_materials_ior":{
					"ior":0.0010000000474974513
				}
			},
			"name":"k000000.001",
			"pbrMetallicRoughness":{
				"baseColorFactor":[
					0,
					0,
					0,
					1
				],
				"metallicFactor":0,
				"roughnessFactor":0.5962674021720886
			}
		},
		{
			"doubleSided":true,
			"extensions":{
				"KHR_materials_specular":{
					"specularColorFactor":[
						0.020080160244135427,
						0.020080160244135427,
						0.020080160244135427
					]
				},
				"KHR_materials_ior":{
					"ior":0.0010000000474974513
				}
			},
			"name":"kffffff.001",
			"pbrMetallicRoughness":{
				"metallicFactor":0,
				"roughnessFactor":0.5962674021720886
			}
		},
		{
			"doubleSided":true,
			"extensions":{
				"KHR_materials_specular":{
					"specularColorFactor":[
						0.020080160244135427,
						0.020080160244135427,
						0.020080160244135427
					]
				},
				"KHR_materials_ior":{
					"ior":0.0010000000474974513
				}
			},
			"name":"k808080.001",
			"pbrMetallicRoughness":{
				"baseColorFactor":[
					0.5040000081062317,
					0.5040000081062317,
					0.5040000081062317,
					1
				],
				"metallicFactor":0,
				"roughnessFactor":0.5962674021720886
			}
		}
	],
	"meshes":[
		{
			"name":"Dopamine.mol.001",
			"primitives":[
				{
					"attributes":{
						"POSITION":0,
						"NORMAL":1
					},
					"indices":2,
					"material":0
				},
				{
					"attributes":{
						"POSITION":3,
						"NORMAL":4
					},
					"indices":5,
					"material":1
				},
				{
					"attributes":{
						"POSITION":6,
						"NORMAL":7
					},
					"indices":8,
					"material":2
				},
				{
					"attributes":{
						"POSITION":9,
						"NORMAL":10
					},
					"indices":11,
					"material":3
				},
				{
					"attributes":{
						"POSITION":12,
						"NORMAL":13
					},
					"indices":14,
					"material":4
				}
			]
		}
	],
	"accessors":[
		{
			"bufferView":0,
			"componentType":5126,
			"count":2039,
			"max":[
				-1.859200119972229,
				0.7667999863624573,
				0.9411999583244324
			],
			"min":[
				-3.7357001304626465,
				-0.32519999146461487,
				-2.342599868774414
			],
			"type":"VEC3"
		},
		{
			"bufferView":1,
			"componentType":5126,
			"count":2039,
			"type":"VEC3"
		},
		{
			"bufferView":2,
			"componentType":5123,
			"count":7680,
			"type":"SCALAR"
		},
		{
			"bufferView":3,
			"componentType":5126,
			"count":1032,
			"max":[
				4.795599937438965,
				0.7319999933242798,
				0.12509998679161072
			],
			"min":[
				4.020600318908691,
				-0.042999982833862305,
				-0.649899959564209
			],
			"type":"VEC3"
		},
		{
			"bufferView":4,
			"componentType":5126,
			"count":1032,
			"type":"VEC3"
		},
		{
			"bufferView":5,
			"componentType":5123,
			"count":3840,
			"type":"SCALAR"
		},
		{
			"bufferView":6,
			"componentType":5126,
			"count":8229,
			"max":[
				3.4111998081207275,
				1.0539000034332275,
				1.9819998741149902
			],
			"min":[
				-2.449699878692627,
				-1.086300015449524,
				-1.4009000062942505
			],
			"type":"VEC3"
		},
		{
			"bufferView":7,
			"componentType":5126,
			"count":8229,
			"type":"VEC3"
		},
		{
			"bufferView":8,
			"componentType":5123,
			"count":30720,
			"type":"SCALAR"
		},
		{
			"bufferView":9,
			"componentType":5126,
			"count":11284,
			"max":[
				5.011199951171875,
				1.529099941253662,
				2.8246002197265625
			],
			"min":[
				-3.838900089263916,
				-1.574299931526184,
				-2.2409000396728516
			],
			"type":"VEC3"
		},
		{
			"bufferView":10,
			"componentType":5126,
			"count":11284,
			"type":"VEC3"
		},
		{
			"bufferView":11,
			"componentType":5123,
			"count":42240,
			"type":"SCALAR"
		},
		{
			"bufferView":12,
			"componentType":5126,
			"count":54893,
			"max":[
				4.837199687957764,
				1.3550999164581299,
				2.6506001949310303
			],
			"min":[
				-3.664900064468384,
				-1.4002999067306519,
				-2.0669000148773193
			],
			"type":"VEC3"
		},
		{
			"bufferView":13,
			"componentType":5126,
			"count":54893,
			"type":"VEC3"
		},
		{
			"bufferView":14,
			"componentType":5123,
			"count":197400,
			"type":"SCALAR"
		}
	],
	"bufferViews":[
		{
			"buffer":0,
			"byteLength":24468,
			"byteOffset":0,
			"target":34962
		},
		{
			"buffer":0,
			"byteLength":24468,
			"byteOffset":24468,
			"target":34962
		},
		{
			"buffer":0,
			"byteLength":15360,
			"byteOffset":48936,
			"target":34963
		},
		{
			"buffer":0,
			"byteLength":12384,
			"byteOffset":64296,
			"target":34962
		},
		{
			"buffer":0,
			"byteLength":12384,
			"byteOffset":76680,
			"target":34962
		},
		{
			"buffer":0,
			"byteLength":7680,
			"byteOffset":89064,
			"target":34963
		},
		{
			"buffer":0,
			"byteLength":98748,
			"byteOffset":96744,
			"target":34962
		},
		{
			"buffer":0,
			"byteLength":98748,
			"byteOffset":195492,
			"target":34962
		},
		{
			"buffer":0,
			"byteLength":61440,
			"byteOffset":294240,
			"target":34963
		},
		{
			"buffer":0,
			"byteLength":135408,
			"byteOffset":355680,
			"target":34962
		},
		{
			"buffer":0,
			"byteLength":135408,
			"byteOffset":491088,
			"target":34962
		},
		{
			"buffer":0,
			"byteLength":84480,
			"byteOffset":626496,
			"target":34963
		},
		{
			"buffer":0,
			"byteLength":658716,
			"byteOffset":710976,
			"target":34962
		},
		{
			"buffer":0,
			"byteLength":658716,
			"byteOffset":1369692,
			"target":34962
		},
		{
			"buffer":0,
			"byteLength":394800,
			"byteOffset":2028408,
			"target":34963
		}
	],
	"buffers":[
		{
			"byteLength":2423208,
			"uri":"data:application/octet-stream;base64,"
		}
	]
}
